<svg xmlns="http://www.w3.org/2000/svg" xmlns:xlink="http://www.w3.org/1999/xlink" viewBox="0 0 152.72 179.68"><defs><style>.cls-1{fill:none;}.cls-2{clip-path:url(#clip-path);}.cls-3{fill:#6aa6d1;}.cls-4{fill:#94c3dd;}.cls-5,.cls-7{opacity:0.6;}.cls-6{fill:#6fb2e3;}.cls-7{fill:#2f89b8;isolation:isolate;}.cls-8{clip-path:url(#clip-path-2);}.cls-9{fill:#e6c057;}.cls-10{fill:#e9d05b;}.cls-11{fill:#d88630;}</style><clipPath id="clip-path"><polygon class="cls-1" points="81.88 9.61 20.65 159.61 49.47 121.18 103.11 49.76 81.88 9.61"/></clipPath><clipPath id="clip-path-2"><polygon class="cls-1" points="150.72 159.61 105.69 55.64 93.36 72.13 93.36 72.13 80.88 88.91 150.72 159.61"/></clipPath></defs><title>Recurso 1</title><g id="Capa_2" data-name="Capa 2"><g id="Capa_2-2" data-name="Capa 2"><g class="cls-2"><path class="cls-3" d="M39.15,142C63,112.72,85.76,73.57,107.7,49.76,97.8,29.54,88.05,15.34,78.44,1.43,66.4,30.54,53.78,68,40.73,99.09A567.9,567.9,0,0,1,0,179.68"/><path class="cls-4" d="M6.45,170.65c31.27-30.26,60.38-101.82,87.48-149A212.12,212.12,0,0,0,79.88,0C68.55,27.39,56.93,63,44.6,93.21,32.41,124.19,19.65,149.86,6.45,170.65Z"/><g class="cls-5"><path class="cls-6" d="M80.88,4.16C74.86,25.67,68.69,50.91,62.24,72,55.78,93.5,49,110.71,42,128.06,53.63,119.31,65,107.7,76,92.21c11-14.77,21.8-33.41,32.27-42.88C98.8,29,89.77,17.5,80.88,4.16Z"/></g></g><polygon class="cls-6" points="78.3 97.66 88.77 108.41 78.58 118.59 68.4 108.84 78.3 97.66"/><polyline class="cls-7" points="78.3 97.66 88.77 108.41 78.58 118.59"/><polygon class="cls-6" points="67.97 110.71 78.3 120.75 68.12 131.64 57.94 121.89 67.97 110.71"/><polyline class="cls-7" points="67.97 110.71 78.3 120.75 68.12 131.64"/><polygon class="cls-6" points="89.2 110.28 99.67 121.03 89.48 131.21 79.16 120.89 89.2 110.28"/><polyline class="cls-7" points="89.2 110.28 99.67 121.03 89.48 131.21"/><g class="cls-8"><path class="cls-9" d="M152.72,171.08c-5.3-23.09-12.18-49.19-20.36-65.25-8.17-17.49-17.21-30-27.1-52.34C95.22,68.26,86,85.61,76.86,90.34c15.06,24,28.4,30.55,41.3,39C131.07,136.52,142.83,152.87,152.72,171.08Z"/><path class="cls-10" d="M151.72,169.79c-15.06-51.91-37-55.35-60.95-95.51,4.74-5.16,9.47-12.9,14.49-20.36,9.61,22.94,18.5,35,26.38,51.62C139.67,120.89,146.56,145.27,151.72,169.79Z"/><g class="cls-5"><path class="cls-11" d="M106.55,56.79c2,23.23,3.87,46.89,5.59,68.11,7.17,7.75,14,10.19,20.65,17.36,6.6,6.45,12.62,18.5,17.93,29-4.74-27.67-11.48-47.61-19.08-63.52C124,91.35,115.58,79,106.55,56.79Z"/></g></g></g></g></svg>