<?xml version="1.0" encoding="utf-8"?>
<!-- Generator: Adobe Illustrator 17.1.0, SVG Export Plug-In . SVG Version: 6.00 Build 0)  -->
<!DOCTYPE svg PUBLIC "-//W3C//DTD SVG 1.1//EN" "http://www.w3.org/Graphics/SVG/1.1/DTD/svg11.dtd">
<svg version="1.1" id="Capa_1" xmlns="http://www.w3.org/2000/svg" xmlns:xlink="http://www.w3.org/1999/xlink" x="0px" y="0px"
	 viewBox="110.6 311.2 417.9 96.8" enable-background="new 110.6 311.2 417.9 96.8" xml:space="preserve">
<symbol  id="logo-spearmex" viewBox="-208.9 -60 417.9 120">
	<g>
		<text transform="matrix(1 0 0 -1 -173.5884 -50.9819)" fill="#201813" font-family="'ArialMT'" font-size="27.8182"> </text>
	</g>
	<g>
		<g>
			<defs>
				<polygon id="SVGID_1_" points="-36.9,54.8 -69.9,-26 -54.4,-5.3 -25.5,33.2 				"/>
			</defs>
			<clipPath id="SVGID_2_">
				<use xlink:href="#SVGID_1_"  overflow="visible"/>
			</clipPath>
			<g clip-path="url(#SVGID_2_)">
				<g>
					<path fill="#6AA6D1" d="M-60-16.5C-47.1-0.7-34.8,20.4-23,33.2c-5.3,10.9-10.6,18.5-15.8,26c-6.5-15.7-13.3-35.9-20.3-52.6
						c-7-17.2-14.4-30.9-21.9-43.4"/>
				</g>
				<g>
					<path fill="#94C3DD" d="M-77.6-31.9C-60.7-15.6-45,22.9-30.4,48.3C-33,52.9-35.5,56.6-38,60c-6.1-14.8-12.4-33.9-19-50.2
						C-63.6-6.9-70.5-20.7-77.6-31.9z"/>
				</g>
				<g opacity="0.6">
					<path fill="#6FB2E3" d="M-37.5,57.8c-3.2-11.6-6.6-25.2-10-36.5C-51,9.6-54.6,0.4-58.4-9c6.3,4.7,12.4,11,18.3,19.3
						c6,8,11.7,18,17.4,23.1C-27.8,44.4-32.7,50.6-37.5,57.8z"/>
				</g>
			</g>
		</g>
	</g>
	<polygon fill="#6FB2E3" points="-38.9,7.4 -33.2,1.6 -38.7,-3.9 -44.2,1.4 	"/>
	<polyline opacity="0.6" fill="#2F89B8" enable-background="new    " points="-38.9,7.4 -33.2,1.6 -38.7,-3.9 	"/>
	<polygon fill="#6FB2E3" points="-44.4,0.4 -38.9,-5 -44.4,-10.9 -49.8,-5.7 	"/>
	<polyline opacity="0.6" fill="#2F89B8" enable-background="new    " points="-44.4,0.4 -38.9,-5 -44.4,-10.9 	"/>
	<polygon fill="#6FB2E3" points="-33,0.6 -27.4,-5.2 -32.8,-10.7 -38.4,-5.1 	"/>
	<polyline opacity="0.6" fill="#2F89B8" enable-background="new    " points="-33,0.6 -27.4,-5.2 -32.8,-10.7 	"/>
	<g>
		<g>
			<defs>
				<polygon id="SVGID_3_" points="0.2,-26 -24.1,30 -30.8,21.1 -30.8,21.1 -37.5,12.1 				"/>
			</defs>
			<clipPath id="SVGID_4_">
				<use xlink:href="#SVGID_3_"  overflow="visible"/>
			</clipPath>
			<g clip-path="url(#SVGID_4_)">
				<g>
					<g>
						<path fill="#E6C057" d="M1.2-32.2C-1.6-19.7-5.3-5.7-9.7,3c-4.4,9.4-9.3,16.1-14.6,28.2c-5.4-8-10.4-17.3-15.3-19.9
							c8.1-12.9,15.3-16.5,22.3-21C-10.4-13.5-4.1-22.4,1.2-32.2z"/>
					</g>
					<g>
						<path fill="#E9D05B" d="M0.7-31.5C-7.4-3.5-19.2-1.6-32.1,20c2.5,2.8,5.1,7,7.8,11c5.2-12.4,10-18.9,14.2-27.8
							C-5.8-5.1-2.1-18.3,0.7-31.5z"/>
					</g>
					<g opacity="0.6">
						<path fill="#D88630" d="M-23.6,29.4c1.1-12.5,2.1-25.3,3-36.7c3.9-4.2,7.6-5.5,11.1-9.4c3.6-3.5,6.8-10,9.7-15.6
							C-2.4-17.3-6-6.6-10.1,2C-14.2,10.8-18.8,17.4-23.6,29.4z"/>
					</g>
				</g>
			</g>
		</g>
	</g>
	<path fill="#2A385D" d="M-189.2-24.7c-4.2,0.2-8.1,1.3-11.6,3.2c-4,2.2-6.7,5.3-8.1,9l2.3,0.9c1.2-3.3,3.6-6,7.2-7.9
		c3.1-1.7,6.6-2.6,10.3-2.9c5.6-0.2,10.3,1.2,14.1,4.2c3.6,2.8,5.3,6.2,5.5,10.1c0.3,7.3-5.9,12.7-18.5,16.2
		c-6.8,1.9-12,4.4-15.5,7.6c-3.5,3.2-5.1,6.9-4.9,11c0.3,6.1,2.9,10.6,7.6,13.5c3.9,2.4,8.8,3.5,14.5,3.2c6.8-0.3,12.3-2.6,16.4-7
		l-1.9-1.7c-3.6,3.9-8.4,5.9-14.6,6.2c-5.3,0.2-9.6-0.7-13.1-2.9c-4.1-2.5-6.3-6.3-6.5-11.5c-0.3-7.2,5.9-12.5,18.5-16.1
		c6.8-1.9,12-4.4,15.5-7.6c3.5-3.2,5.1-6.9,4.9-11c-0.2-4.7-2.4-8.7-6.5-12c-4-3.2-8.8-4.8-14.5-4.8
		C-188.4-24.8-188.9-24.7-189.2-24.7z"/>
	<path fill="#2A385D" d="M-158.7-24.1h-2.6v67.1h23.6c4.8,0,8.9-1.7,12.4-5.2c3.4-3.4,5.1-7.6,5.1-12.4c0-4.9-1.7-9-5.1-12.4
		c-3.4-3.4-7.6-5.2-12.4-5.2h-21.1L-158.7-24.1L-158.7-24.1z M-158.7,10.6h21.1c4.1,0,7.6,1.5,10.6,4.4s4.4,6.5,4.4,10.6
		c0,4.2-1.5,7.6-4.4,10.6c-2.9,2.9-6.5,4.4-10.6,4.4h-21.1V10.6z"/>
	<path fill="#2A385D" d="M-79.6,43.1v-2.6h-31.8V10.9h25.6V8.4h-25.6v-29.9h31.8v-2.5h-34.3v67.1L-79.6,43.1L-79.6,43.1z"/>
	<path fill="#2A385D" d="M46.7-24.1L30,8.1H9.7v-32.1H7.1v67.1h23.6c4.8,0,8.9-1.7,12.4-5.2c3.4-3.4,5.2-7.6,5.2-12.4
		c0-4.5-1.5-8.3-4.5-11.7c-2.9-3.3-6.6-5.2-11-5.7l16.8-32.2L46.7-24.1L46.7-24.1z M9.7,10.6h21.1c4.1,0,7.6,1.5,10.6,4.4
		c2.9,2.9,4.4,6.4,4.4,10.6s-1.5,7.6-4.4,10.6c-2.9,2.9-6.5,4.4-10.6,4.4H9.7V10.6z"/>
	<path fill="#2A385D" d="M119.6,43.1v-67.1h-2.5v64.6L89.3-24.1H86L58.1,40.5v-64.6h-2.5v67.1h4.2l27.9-64.5l27.9,64.5H119.6z"/>
	<path fill="#2A385D" d="M162.2,43.1v-2.6h-31.8V10.9h25.6V8.4h-25.6v-29.9h31.8v-2.5h-34.3v67.1L162.2,43.1L162.2,43.1z"/>
	<path fill="#2A385D" d="M208.9,43.1L188.8,8.9l19.4-32.9h-2.9L187.4,6.4l-18-30.4h-2.9l19.4,32.9l-20.2,34.2h2.9l18.8-31.8
		l18.7,31.8L208.9,43.1L208.9,43.1z"/>
</symbol>
<use xlink:href="#logo-spearmex"  width="417.9" height="120" x="-208.9" y="-60" transform="matrix(1 0 0 -1 319.5227 371.1695)" overflow="visible"/>
</svg>
